<?xml version="1.0" encoding="UTF-8" standalone="no"?>
<svg
   width="60"
   height="60"
   viewBox="0 0 60 60"
   fill="none"
   version="1.1"
   id="svg4"
   sodipodi:docname="service_icon_1_7.svg"
   inkscape:version="1.3.2 (091e20e, 2023-11-25, custom)"
   xmlns:inkscape="http://www.inkscape.org/namespaces/inkscape"
   xmlns:sodipodi="http://sodipodi.sourceforge.net/DTD/sodipodi-0.dtd"
   xmlns="http://www.w3.org/2000/svg"
   xmlns:svg="http://www.w3.org/2000/svg">
  <defs
     id="defs4" />
  <sodipodi:namedview
     id="namedview4"
     pagecolor="#ffffff"
     bordercolor="#000000"
     borderopacity="0.25"
     inkscape:showpageshadow="2"
     inkscape:pageopacity="0.0"
     inkscape:pagecheckerboard="0"
     inkscape:deskcolor="#d1d1d1"
     inkscape:zoom="4.5785164"
     inkscape:cx="11.685008"
     inkscape:cy="11.248185"
     inkscape:window-width="1920"
     inkscape:window-height="991"
     inkscape:window-x="-9"
     inkscape:window-y="-9"
     inkscape:window-maximized="1"
     inkscape:current-layer="svg4" />
  <path
     d="M55.696 48.5997L44.3238 37.2281C43.6146 36.5178 42.4095 36.4872 41.6456 37.1199L39.6125 35.0871C45.3782 27.1395 44.7046 15.9397 37.5457 8.78079C29.6151 0.850185 16.7107 0.851291 8.78116 8.78079C0.850547 16.7114 0.850547 29.6153 8.7806 37.5453C15.9071 44.6832 27.0615 45.4721 35.092 39.6172L37.1195 41.6447C36.4639 42.4249 36.4941 43.5897 37.2279 44.3234L48.6 55.6956C50.5596 57.6563 53.7353 57.6573 55.696 55.6956C57.6567 53.736 57.6577 50.5603 55.696 48.5997ZM9.98177 36.3453C2.71339 29.0769 2.71339 17.2498 9.98177 9.98141C17.2519 2.71241 29.0759 2.71337 36.3451 9.98141C43.6135 17.2498 43.6135 29.0769 36.3451 36.3453C29.0623 43.6384 17.266 43.6398 9.98177 36.3453ZM37.5457 37.5459C37.9042 37.1874 38.2278 36.8079 38.554 36.4299L40.4323 38.3076L38.308 40.4319L36.4328 38.5568C36.8107 38.2297 37.189 37.9031 37.5457 37.5459ZM54.4953 54.495C53.2013 55.789 51.0958 55.7901 49.8006 54.495L38.4285 43.1228C38.3157 43.0095 38.3157 42.826 38.4285 42.7127C40.2513 40.8898 41.3443 39.7968 42.7136 38.4276C42.7871 38.3541 42.8733 38.343 42.9175 38.343C42.9623 38.343 43.0485 38.3541 43.1226 38.4281L54.4953 49.8003C55.7894 51.0949 55.7894 53.2004 54.4953 54.495Z"
     fill="#6D30FB"
     id="path1" />
  <path
     d="M34.0235 12.3048C28.0276 6.29756 18.3029 6.29388 12.3045 12.3037C6.29601 18.3008 6.29497 28.0251 12.3034 34.0221C18.3 40.0301 28.0244 40.0325 34.0229 34.0226C40.0298 28.026 40.0328 18.3028 34.0235 12.3048ZM32.8228 32.8215C32.8223 32.822 32.8223 32.822 32.8217 32.8226C27.4891 38.1655 18.8402 38.168 13.504 32.8215C8.16096 27.4875 8.15862 18.8405 13.5051 13.5043C18.8377 8.16147 27.4866 8.15891 32.8228 13.5054C38.1666 18.8389 38.167 27.4864 32.8228 32.8215Z"
     fill="#6D30FB"
     id="path2" />
  <text
     xml:space="preserve"
     style="font-weight:bold;font-size:15.2741px;font-family:'Yu Gothic UI';-inkscape-font-specification:'Yu Gothic UI Bold';fill:#6d30fb;fill-rule:evenodd;stroke-width:1.21876;paint-order:stroke fill markers"
     x="11.399432"
     y="28.192699"
     id="text4"><tspan
       sodipodi:role="line"
       id="tspan4"
       x="11.399432"
       y="28.192699"
       style="stroke-width:1.21876">AM</tspan></text>
</svg>
